<svg width="37" height="28" viewBox="0 0 37 28" fill="none" xmlns="http://www.w3.org/2000/svg">
<circle cx="19.8488" cy="13.6418" r="13.6418" fill="white"/>
<path d="M13.1328 3.64883L13.4095 7.14913C20.3461 6.94007 24.7375 7.86103 27.1248 8.37565L28.2515 5.4613C28.3825 5.12256 28.2432 4.73769 27.919 4.57403C22.6243 1.90132 16.8753 2.2439 13.6876 2.89753C13.3384 2.96914 13.1047 3.29344 13.1328 3.64883Z" fill="black" stroke="white" stroke-width="0.543868"/>
<path d="M20.3425 7.31431C24.6939 7.67167 28.5889 8.42838 31.3666 9.35726C32.7572 9.82231 33.853 10.3256 34.5846 10.8346C35.3346 11.3565 35.6183 11.8238 35.5873 12.2025C35.5562 12.5812 35.2002 12.9959 34.3749 13.3885C33.57 13.7713 32.4069 14.09 30.9589 14.322C28.0669 14.7852 24.1007 14.8954 19.7493 14.538C15.3979 14.1807 11.5028 13.4249 8.72512 12.4961C7.33433 12.031 6.23878 11.5268 5.5072 11.0178C4.75699 10.4958 4.47239 10.0285 4.50349 9.64978C4.53474 9.27114 4.89181 8.85639 5.71693 8.46386C6.52174 8.08109 7.68498 7.76327 9.13284 7.53134C12.0249 7.06807 15.9911 6.95696 20.3425 7.31431Z" fill="black" stroke="white" stroke-width="0.543868"/>
<path d="M4.6543 10.0573C4.6543 10.0573 16.3762 7.94746 35.4131 12.3987" stroke="white" stroke-width="0.543868"/>
<path d="M12.8289 13.7266C12.8289 12.378 13.3287 10.2363 13.5799 9.58476C13.5799 9.58476 16.3488 9.56125 19.1411 9.77243C21.9335 9.98362 24.7258 10.4529 24.7258 10.4529C24.4778 16.1257 22.215 22.162 17.7887 22.7852C14.8401 23.2003 13.5294 20.9635 13.1977 19.5722C7.40151 18.7617 2.3339 20.1936 0.287109 21.266C4.15004 14.9709 9.76712 14.0951 12.8289 13.7266Z" fill="black" stroke="white" stroke-width="0.543868"/>
<path d="M17.3296 11.3058C18.4522 11.475 19.2549 12.6382 19.0568 13.9549C18.8584 15.2718 17.7486 16.1467 16.6259 15.9777C15.503 15.8086 14.6993 14.6454 14.8977 13.3284C15.0962 12.0117 16.2068 11.1367 17.3296 11.3058Z" fill="black" stroke="white" stroke-width="0.543868"/>
<path d="M15.1184 13.0945C14.8995 12.9762 14.1717 12.7601 13.0119 12.842" stroke="white" stroke-width="0.543868"/>
<path d="M29.0479 23.1704C25.4222 20.3579 25.5999 13.6634 26.186 10.7703L24.7021 10.5781C23.515 20.5758 18.6596 23.4399 16.5175 22.7715L15.4805 26.1505C22.4967 28.2858 27.6165 25.0007 29.0479 23.1704Z" fill="black" stroke="white" stroke-width="0.543868"/>
<path d="M13.748 19.6493C20.3172 20.4835 21.8823 13.5184 22.2155 10.1005L24.6548 10.4779C24.2525 20.1848 18.9368 23.3172 16.4919 22.8806C14.4728 22.5201 13.7625 20.6775 13.748 19.6493Z" fill="black" stroke="white" stroke-width="0.543868"/>
</svg>
