<svg width="125" height="48" viewBox="0 0 125 48" fill="none" xmlns="http://www.w3.org/2000/svg">
<g clip-path="url(#clip0_624_877)">
<mask id="mask0_624_877" style="mask-type:luminance" maskUnits="userSpaceOnUse" x="0" y="0" width="125" height="48">
<path d="M125 0H0V48H125V0Z" fill="white"/>
</mask>
<g mask="url(#mask0_624_877)">
<path d="M4.18712 45.8512C3.6597 45.9806 2.96182 46.0809 2.35078 46.0809C0.864983 46.0809 0.176758 45.1068 0.176758 43.602V42.8997C0.176758 41.3949 0.855335 40.4208 2.35078 40.4208C2.94896 40.4208 3.65648 40.5211 4.18712 40.6505C4.36723 40.6893 4.39617 40.7411 4.39617 40.8803V45.6149C4.39617 45.7444 4.36723 45.8059 4.18712 45.8447V45.8512ZM3.51819 41.2654C3.24805 41.2169 2.76886 41.1651 2.35078 41.1651C1.36347 41.1651 1.05473 41.8382 1.05473 42.8997V43.602C1.05473 44.657 1.36347 45.3366 2.35078 45.3366C2.76886 45.3366 3.2384 45.2848 3.51819 45.2363V41.2622V41.2654Z" fill="white"/>
<path d="M10.4585 46.0129H9.94068C9.83132 46.0129 9.76059 45.9223 9.76059 45.8123V42.2298C9.76059 41.4757 9.57083 41.1877 8.89225 41.1877H8.18477C7.50619 41.1877 7.31643 41.4789 7.31643 42.2298V45.8123C7.31643 45.9223 7.2457 46.0129 7.13634 46.0129H6.61856C6.50921 46.0129 6.43848 45.9223 6.43848 45.8123V42.2298C6.43848 40.6861 7.50619 40.424 8.18477 40.424H8.89225C9.57083 40.424 10.6385 40.6861 10.6385 42.2298V45.8123C10.6385 45.9223 10.5678 46.0129 10.4585 46.0129Z" fill="white"/>
<path d="M19.6627 45.8512C19.1353 45.9806 18.4374 46.0809 17.8264 46.0809C16.3406 46.0809 15.6523 45.1068 15.6523 43.602V42.8997C15.6523 41.3949 16.3309 40.4208 17.8264 40.4208C18.4246 40.4208 19.1321 40.5211 19.6627 40.6505C19.8428 40.6893 19.8718 40.7411 19.8718 40.8803V45.6149C19.8718 45.7444 19.8428 45.8059 19.6627 45.8447V45.8512ZM18.9938 41.2654C18.7236 41.2169 18.2445 41.1651 17.8264 41.1651C16.8391 41.1651 16.5304 41.8382 16.5304 42.8997V43.602C16.5304 44.657 16.8391 45.3366 17.8264 45.3366C18.2445 45.3366 18.714 45.2848 18.9938 45.2363V41.2622V41.2654Z" fill="white"/>
<path d="M25.9312 46.0129H25.4134C25.304 46.0129 25.2333 45.9223 25.2333 45.8123V42.2298C25.2333 41.4757 25.0435 41.1877 24.365 41.1877H23.6574C22.9788 41.1877 22.7891 41.4789 22.7891 42.2298V45.8123C22.7891 45.9223 22.7184 46.0129 22.6091 46.0129H22.0913C21.9819 46.0129 21.9111 45.9223 21.9111 45.8123V42.2298C21.9111 40.6861 22.9788 40.424 23.6574 40.424H24.365C25.0435 40.424 26.1113 40.6861 26.1113 42.2298V45.8123C26.1113 45.9223 26.0405 46.0129 25.9312 46.0129Z" fill="white"/>
<path d="M31.983 45.8512C31.4556 45.9806 30.7578 46.0809 30.1467 46.0809C28.6609 46.0809 27.9727 45.1068 27.9727 43.602V42.8997C27.9727 41.3949 28.6512 40.4208 30.1467 40.4208C30.7449 40.4208 31.4524 40.5211 31.983 40.6505C32.1632 40.6893 32.1921 40.7411 32.1921 40.8803V45.6149C32.1921 45.7444 32.1632 45.8059 31.983 45.8447V45.8512ZM31.3141 41.2654C31.044 41.2169 30.5648 41.1651 30.1467 41.1651C29.1594 41.1651 28.8507 41.8382 28.8507 42.8997V43.602C28.8507 44.657 29.1594 45.3366 30.1467 45.3366C30.5648 45.3366 31.0343 45.2848 31.3141 45.2363V41.2622V41.2654Z" fill="white"/>
<path d="M35.0318 46.0129H34.5141C34.4144 46.0129 34.334 45.9223 34.334 45.8122V38.6569C34.334 38.5566 34.4047 38.4659 34.5141 38.4659H35.0318C35.1315 38.4659 35.2119 38.5468 35.2119 38.6569V45.8122C35.2119 45.9126 35.1412 46.0129 35.0318 46.0129Z" fill="white"/>
<path d="M39.5182 48C38.7817 48 38.1031 47.8899 37.8716 47.8284C37.7332 47.7896 37.6818 47.7378 37.6818 47.618V47.3365C37.6818 47.2362 37.7622 47.165 37.8619 47.165H37.8908C38.19 47.2038 38.9393 47.2848 39.515 47.2848C40.4122 47.2848 40.692 47.0646 40.692 46.0097V45.9579C40.454 46.029 39.9041 46.0776 39.5857 46.0776C38.4376 46.0776 37.3506 45.6763 37.3506 44V40.6892C37.3506 40.5792 37.4406 40.4886 37.55 40.4886H38.0292C38.1385 40.4886 38.2285 40.5792 38.2285 40.6892V44C38.2285 45.0744 38.7463 45.3236 39.5857 45.3236C39.8751 45.3236 40.3832 45.2621 40.6727 45.1941V40.6892C40.6727 40.5792 40.7628 40.4886 40.8721 40.4886H41.3513C41.4606 40.4886 41.5506 40.5792 41.5506 40.6892V46.0064C41.5506 47.5825 40.8721 47.9934 39.515 47.9934L39.5182 48Z" fill="white"/>
<path d="M46.0312 46.0227C45.8415 46.0518 45.433 46.0842 45.0728 46.0842C44.1369 46.0842 43.5967 45.7734 43.5967 44.6893V39.5113C43.5967 39.411 43.6867 39.3398 43.7961 39.3204L44.2849 39.2395H44.3042C44.4039 39.2395 44.4746 39.3301 44.4746 39.4304V40.4951H46.0312C46.1405 40.4951 46.2209 40.5663 46.2209 40.6764V41.0162C46.2209 41.1165 46.1405 41.1974 46.0312 41.1974H44.4746V44.6893C44.4746 45.2718 44.6644 45.3722 45.2111 45.3722H46.0184C46.1566 45.3722 46.2273 45.411 46.2273 45.5113V45.8511C46.2273 45.9418 46.1791 46 46.028 46.0227H46.0312Z" fill="white"/>
<path d="M48.6519 39.6116H48.1437C48.0343 39.6116 47.9443 39.521 47.9443 39.4109V38.6084C47.9443 38.4983 48.0343 38.4077 48.1437 38.4077H48.6519C48.7612 38.4077 48.8512 38.4983 48.8512 38.6084V39.4109C48.8512 39.521 48.7612 39.6116 48.6519 39.6116ZM48.6325 46.0129H48.1534C48.044 46.0129 47.954 45.9222 47.954 45.8122V40.6957C47.954 40.5857 48.044 40.4951 48.1534 40.4951H48.6325C48.7419 40.4951 48.832 40.5857 48.832 40.6957V45.8122C48.832 45.9222 48.7419 46.0129 48.6325 46.0129Z" fill="white"/>
<path d="M54.4146 45.9515C54.1348 46.0226 53.6877 46.1003 53.0896 46.1003C51.6842 46.1003 50.7676 45.1974 50.7676 43.5631V42.7217C50.7676 41.0874 51.6842 40.1844 53.0896 40.1844C53.6877 40.1844 54.138 40.2654 54.4146 40.3365C54.5657 40.3754 54.6236 40.4174 54.6236 40.5663V41.4595C54.6236 41.5598 54.5335 41.6311 54.4338 41.6311H54.4146C54.0447 41.5922 53.7649 41.5598 53.1989 41.5598C52.7487 41.5598 52.382 41.8317 52.382 42.7249V43.5663C52.382 44.4595 52.7519 44.7314 53.1989 44.7314C53.7681 44.7314 54.0479 44.7023 54.4146 44.6602H54.4338C54.5335 44.6602 54.6236 44.7314 54.6236 44.8317V45.7249C54.6236 45.877 54.5625 45.9158 54.4146 45.9547V45.9515Z" fill="white"/>
<path d="M61.0242 46.0129H59.8182C59.7088 46.0129 59.6188 45.9126 59.6188 45.8026V42.4595C59.6188 41.7573 59.4901 41.5275 58.8823 41.5275C58.5928 41.5275 58.2841 41.6667 57.9464 41.8479V45.8026C57.9464 45.9126 57.8564 46.0129 57.747 46.0129H56.541C56.4317 46.0129 56.332 45.9126 56.332 45.8026V38.5178C56.332 38.4078 56.422 38.3171 56.5314 38.3171H57.747C57.8564 38.3171 57.9464 38.4078 57.9464 38.5178V40.6343C58.4546 40.3042 58.8727 40.1812 59.4709 40.1812C60.918 40.1812 61.2364 41.1942 61.2364 42.4595V45.8026C61.2364 45.9126 61.1367 46.0129 61.0274 46.0129H61.0242Z" fill="white"/>
<path d="M67.7453 43.644H64.5644V43.6635C64.5644 44.2363 64.8025 44.7573 65.5902 44.7573C66.2177 44.7573 67.1053 44.7055 67.5041 44.6667H67.533C67.6423 44.6667 67.7227 44.7153 67.7227 44.8285V45.5923C67.7227 45.7541 67.6838 45.822 67.5136 45.8641C66.8766 46.0259 66.3364 46.1036 65.4683 46.1036C64.2623 46.1036 62.9658 45.4628 62.9658 43.5243V42.822C62.9658 41.2071 63.9049 40.1813 65.4872 40.1813C67.0695 40.1813 67.9507 41.3042 67.9507 42.822V43.4045C67.9507 43.5534 67.8703 43.644 67.7416 43.644H67.7453ZM66.3785 42.602C66.3785 41.8609 66.0406 41.4887 65.4809 41.4887C64.9212 41.4887 64.5644 41.8706 64.5644 42.602V42.6408H66.3785V42.602Z" fill="white"/>
<path d="M76.9564 46.013H75.741C75.6317 46.013 75.5412 45.9029 75.5412 45.7929V42.2492C75.5412 41.6764 75.371 41.5178 74.9527 41.5178H74.763C74.2649 41.5178 74.2033 41.8091 74.2033 42.2492V45.7929C74.2033 45.9029 74.1229 46.013 74.0136 46.013H72.7887C72.6794 46.013 72.589 45.9029 72.589 45.7929V42.2492C72.589 41.8091 72.528 41.5178 72.0293 41.5178H71.8302C71.4118 41.5178 71.251 41.6796 71.251 42.2492V45.7929C71.251 45.9029 71.1612 46.013 71.0519 46.013H69.8365C69.7265 46.013 69.6367 45.9029 69.6367 45.7929V42.2492C69.6367 40.835 70.4345 40.1813 71.8302 40.1813H72.0293C72.6179 40.1813 73.0651 40.3528 73.3961 40.6117C73.724 40.3495 74.1744 40.1813 74.763 40.1813H74.9527C76.3484 40.1813 77.1556 40.835 77.1556 42.2492V45.7929C77.1556 45.9029 77.0657 46.013 76.9564 46.013Z" fill="white"/>
<path d="M85.411 45.9709C85.0831 46.0324 84.6327 46.0809 84.1635 46.0809C82.8061 46.0809 82.041 45.1165 82.041 43.644V42.8608C82.041 41.3851 82.7998 40.424 84.1635 40.424C84.6233 40.424 85.08 40.4757 85.411 40.534C85.5718 40.5631 85.6107 40.6149 85.6107 40.754V41.1165C85.6107 41.2168 85.5303 41.2653 85.4399 41.2653H85.4016C84.9638 41.2168 84.6522 41.1942 84.1666 41.1942C83.3689 41.1942 82.9185 41.7249 82.9185 42.8608V43.644C82.9185 44.767 83.3563 45.3107 84.1666 45.3107C84.6553 45.3107 84.9638 45.2913 85.4016 45.2395H85.4399C85.5303 45.2395 85.6107 45.2913 85.6107 45.3916V45.754C85.6107 45.8835 85.5718 45.945 85.411 45.9741V45.9709Z" fill="white"/>
<path d="M89.0902 46.0809C87.6242 46.0809 86.8779 45.1068 86.8779 43.6311V42.8673C86.8779 41.3916 87.6273 40.4175 89.0902 40.4175C90.5538 40.4175 91.3126 41.3916 91.3126 42.8673V43.6311C91.3126 45.1068 90.5538 46.0809 89.0902 46.0809ZM90.4382 42.8706C90.4382 41.8479 90.0293 41.1942 89.0902 41.1942C88.1512 41.1942 87.7561 41.835 87.7561 42.8706V43.6343C87.7561 44.657 88.1543 45.3107 89.0902 45.3107C90.0262 45.3107 90.4382 44.6699 90.4382 43.6343V42.8706Z" fill="white"/>
<path d="M99.5969 46.0129H99.0793C98.97 46.0129 98.8991 45.9223 98.8991 45.8123V42.1812C98.8991 41.3171 98.5291 41.1974 98.0021 41.1974H97.7734C97.1365 41.1974 96.9148 41.3074 96.9148 41.8802V45.8123C96.9148 45.9223 96.8438 46.0129 96.7345 46.0129H96.2169C96.1076 46.0129 96.0366 45.9223 96.0366 45.8123V41.8802C96.0366 41.3074 95.818 41.1974 95.1779 41.1974H94.9499C94.4317 41.1974 94.0523 41.3171 94.0523 42.1812V45.8123C94.0523 45.9223 93.982 46.0129 93.8727 46.0129H93.3545C93.2452 46.0129 93.1748 45.9223 93.1748 45.8123V42.1812C93.1748 41.1489 93.7533 40.424 94.9499 40.424H95.1779C95.7766 40.424 96.1654 40.5049 96.4744 40.7864C96.7734 40.5242 97.1723 40.424 97.7703 40.424H97.9983C99.1949 40.424 99.774 41.1456 99.774 42.1812V45.8123C99.774 45.9223 99.7031 46.0129 99.5938 46.0129H99.5969Z" fill="white"/>
<path d="M103.865 46.0809C103.556 46.0809 103.086 46.042 102.697 45.9709V47.7864C102.697 47.8867 102.617 47.9773 102.507 47.9773H102C101.9 47.9773 101.819 47.8964 101.819 47.7864V40.8835C101.819 40.754 101.848 40.6926 102.029 40.6537C102.556 40.5242 103.253 40.424 103.865 40.424C105.35 40.424 106.039 41.398 106.039 42.9029V43.6246C106.039 45.2006 105.321 46.0841 103.865 46.0841V46.0809ZM105.16 42.8997C105.16 41.8446 104.852 41.165 103.865 41.165C103.446 41.165 102.977 41.2168 102.697 41.2653V45.2395C103.025 45.3009 103.543 45.3398 103.865 45.3398C104.843 45.3398 105.16 44.699 105.16 43.6246V42.9029V42.8997Z" fill="white"/>
<path d="M111.731 45.8512C111.204 45.9806 110.506 46.0809 109.898 46.0809C108.412 46.0809 107.724 45.1068 107.724 43.602V42.8997C107.724 41.3949 108.402 40.4208 109.898 40.4208C110.496 40.4208 111.204 40.5211 111.731 40.6505C111.911 40.6893 111.94 40.7411 111.94 40.8803V45.6149C111.94 45.7444 111.911 45.8059 111.731 45.8447V45.8512ZM111.062 41.2654C110.791 41.2169 110.312 41.1651 109.894 41.1651C108.907 41.1651 108.599 41.8382 108.599 42.8997V43.602C108.599 44.657 108.907 45.3366 109.894 45.3366C110.312 45.3366 110.782 45.2848 111.062 45.2363V41.2622V41.2654Z" fill="white"/>
<path d="M117.999 46.0129H117.481C117.372 46.0129 117.301 45.9223 117.301 45.8123V42.2298C117.301 41.4757 117.111 41.1877 116.433 41.1877H115.725C115.046 41.1877 114.857 41.4789 114.857 42.2298V45.8123C114.857 45.9223 114.786 46.0129 114.676 46.0129H114.159C114.049 46.0129 113.979 45.9223 113.979 45.8123V42.2298C113.979 40.6861 115.046 40.424 115.725 40.424H116.433C117.111 40.424 118.179 40.6861 118.179 42.2298V45.8123C118.179 45.9223 118.108 46.0129 117.999 46.0129Z" fill="white"/>
<path d="M122.385 48C121.649 48 120.97 47.8899 120.739 47.8284C120.6 47.7896 120.549 47.7378 120.549 47.618V47.3365C120.549 47.2362 120.629 47.165 120.729 47.165H120.758C121.057 47.2038 121.803 47.2848 122.382 47.2848C123.279 47.2848 123.559 47.0646 123.559 46.0097V45.9579C123.321 46.029 122.771 46.0776 122.453 46.0776C121.304 46.0776 120.218 45.6763 120.218 44V40.6892C120.218 40.5792 120.308 40.4886 120.417 40.4886H120.896C121.005 40.4886 121.095 40.5792 121.095 40.6892V44C121.095 45.0744 121.614 45.3236 122.453 45.3236C122.742 45.3236 123.25 45.2621 123.54 45.1941V40.6892C123.54 40.5792 123.63 40.4886 123.739 40.4886H124.218C124.328 40.4886 124.418 40.5792 124.418 40.6892V46.0064C124.418 47.5825 123.739 47.9934 122.382 47.9934L122.385 48Z" fill="white"/>
<path d="M8.55459 29.7899C2.89119 29.7899 0 26.0294 0 20.3272V17.379C0 11.6799 2.89119 7.91614 8.55459 7.91614C14.218 7.91614 17.1478 11.6767 17.1478 17.379V20.3272C17.1478 26.0262 14.218 29.7899 8.55459 29.7899ZM13.7581 17.3822C13.7581 13.4275 12.179 10.9065 8.55459 10.9065C4.93015 10.9065 3.38968 13.3886 3.38968 17.3822V20.3304C3.38968 24.2851 4.93015 26.8062 8.55459 26.8062C12.179 26.8062 13.7581 24.3239 13.7581 20.3304V17.3822Z" fill="white"/>
<path d="M30.4431 10.9029C27.8221 10.9029 26.5518 10.9805 25.0853 11.2912V28.741C25.0853 29.1294 24.8151 29.5177 24.3906 29.5177H22.387C22.0011 29.5177 21.6924 29.1682 21.6924 28.741V9.89312C21.6924 9.46598 21.9625 9.19409 22.387 8.99994C24.5836 8.02908 27.2432 7.91577 30.4399 7.91577C30.9416 7.91577 31.2504 7.95461 31.2504 8.49834V10.2815C31.2504 10.7087 31.1732 10.9029 30.4399 10.9029H30.4431Z" fill="white"/>
<path d="M49.9834 19.9385H37.0743V20.4822C37.0743 25.0971 38.8849 26.8025 42.4321 26.8025C44.6673 26.8025 47.5199 26.6472 49.2919 26.3754H49.4849C49.7936 26.3754 50.1023 26.5307 50.1023 26.919V28.2362C50.1023 28.741 49.9479 29.0129 49.3305 29.1294C47.1339 29.5566 45.0146 29.7896 42.4321 29.7896C38.0005 29.7896 33.6846 27.6958 33.6846 20.4822V16.9935C33.6846 11.4466 36.7302 7.91907 42.2392 7.91907C47.7482 7.91907 50.7166 11.4854 50.7166 16.9935V19.0873C50.7166 19.5922 50.4464 19.9417 49.9834 19.9417V19.9385ZM47.2851 16.9902C47.2851 12.6084 45.6289 10.9029 42.236 10.9029C38.8431 10.9029 37.0711 12.8026 37.0711 16.9902V17.3398H47.2819V16.9902H47.2851Z" fill="white"/>
<path d="M70.1353 28.8964C68.0932 29.4013 65.3947 29.7896 63.0436 29.7896C57.3032 29.7896 54.6436 26.0291 54.6436 20.2103V17.4951C54.6436 11.6795 57.2646 7.91577 63.0436 7.91577C65.3558 7.91577 68.0932 8.30413 70.1353 8.80901C70.83 8.96432 70.9456 9.15853 70.9456 9.70219V28.0064C70.9456 28.5112 70.83 28.7443 70.1353 28.8996V28.8964ZM67.5524 11.1747C66.511 10.9805 64.6617 10.7864 63.0436 10.7864C59.2296 10.7864 58.0332 13.3851 58.0332 17.4951V20.2103C58.0332 24.2815 59.2264 26.919 63.0436 26.919C64.6617 26.919 66.472 26.7249 67.5524 26.5307V11.1747Z" fill="white"/>
<path d="M82.3911 29.7896C80.9658 29.7896 78.1907 29.6731 76.3031 29.2071C75.8012 29.0906 75.4922 28.8576 75.4922 28.4304V27.0745C75.4922 26.7249 75.8012 26.4919 76.1869 26.4919H76.3414C78.1907 26.7249 81.0048 26.9191 82.3911 26.9191C84.8961 26.9191 86.2051 26.2589 86.2051 24.165C86.2051 23.0032 85.5104 22.2654 83.3138 20.945L79.4225 18.6181C77.0713 17.1844 75.4922 15.5145 75.4922 13.0712C75.4922 9.03883 78.4991 7.9126 82.4677 7.9126C84.626 7.9126 86.6681 8.10681 88.479 8.41748C88.9803 8.49517 89.212 8.767 89.212 9.19413V10.4725C89.212 10.9385 88.9419 11.1327 88.5556 11.1327H88.4401C87.0927 11.0162 84.626 10.822 82.4677 10.822C80.31 10.822 78.8854 11.0939 78.8854 13.0712C78.8854 14.233 79.773 14.9709 81.545 16.0194L85.359 18.3074C88.5594 20.2071 89.5977 21.8738 89.5977 24.1618C89.5977 28.1165 86.7064 29.7864 82.3911 29.7864V29.7896Z" fill="white"/>
<path d="M112.431 0L106.147 10.6278L99.8633 21.2557H125L118.716 10.6278L112.431 0ZM114.966 9.52427L115.606 10.6084H109.251L109.891 9.52427C111.035 7.58899 113.817 7.58899 114.963 9.52427M113.907 13.9256L113.535 13.2945H117.188L120.307 18.5663H118.661C117.413 18.5663 116.258 17.9061 115.621 16.8285L113.907 13.9288V13.9256ZM107.662 13.2945H108.235C109.601 13.2945 110.865 14.0194 111.563 15.1974L113.554 18.5631H104.542L107.659 13.2913L107.662 13.2945Z" fill="white"/>
</g>
</g>
<defs>
<clipPath id="clip0_624_877">
<rect width="125" height="48" fill="white"/>
</clipPath>
</defs>
</svg>
