<svg width="139" height="40" viewBox="0 0 139 40" fill="none" xmlns="http://www.w3.org/2000/svg">
<g clip-path="url(#clip0_624_910)">
<path d="M25.2832 2.528H32.8172L38.3936 12.528L43.9701 2.528H51.504V18.184H46.7501V6.984L40.2524 18.184H36.5266L30.1276 6.984H30.0289V18.184H25.2832V2.528ZM54.5883 11.416C54.5883 7.776 57.0558 7.072 59.2354 7.072H65.6343C67.7975 7.072 70.2814 7.776 70.2814 11.416V14.04C70.2814 17.68 67.8139 18.384 65.6343 18.384H59.2189C57.0558 18.384 54.5719 17.68 54.5719 14.04V11.416H54.5883ZM58.8159 13.232C58.8159 14.744 59.7453 15.352 61.7028 15.352H62.7309C65.5192 15.352 65.9304 14.944 65.9304 13.536V12C65.9304 10.584 65.4122 10.184 62.7309 10.184H61.6864C59.7289 10.184 58.7995 10.592 58.7995 12.304V13.216L58.8159 13.232ZM73.0531 7.072H77.0751V9.192C77.4863 7.472 79.3451 6.968 81.1875 6.968C84.2801 6.968 85.522 8.28 85.522 11.312V12.32H81.829C81.829 10.904 81.4178 10.2 79.7646 10.2C78.317 10.2 77.2972 10.704 77.2972 12.12V18.184H73.0614V7.072H73.0531ZM87.8085 11.312C87.8085 7.88 89.5604 6.968 92.9655 6.968H95.433C97.5961 6.968 98.1143 7.272 99.1506 8.688V7.088H103.173V17.376C103.173 19.6 102.449 21.92 97.0862 21.92H92.3404C89.4535 21.92 87.9072 21.312 87.9072 18.488H92.2417C92.2481 18.6089 92.2807 18.727 92.3374 18.8347C92.3941 18.9424 92.4737 19.0372 92.5709 19.1128C92.668 19.1884 92.7805 19.2431 92.901 19.2733C93.0215 19.3035 93.1472 19.3085 93.2698 19.288H96.3624C98.2212 19.288 99.1506 18.784 99.1506 16.888V16.264C98.3281 17.064 97.6043 17.48 95.3343 17.48H93.0642C88.9518 17.48 87.7016 15.88 87.7016 12.832L87.8085 11.312ZM96.5762 14.44C98.7393 14.44 99.1588 13.936 99.1588 12.216C99.1588 10.496 98.7476 9.992 96.5762 9.992H94.4213C92.2582 9.992 91.8387 10.496 91.8387 12.216C91.8387 13.936 92.2499 14.44 94.4213 14.44H96.5844H96.5762ZM105.624 14.24C105.624 11.208 107.787 11.112 111.817 11.112C114.087 11.112 115.428 11.216 116.25 12.024V11.008C116.25 9.896 115.839 9.592 114.186 9.592H111.718C110.476 9.592 110.172 9.696 110.073 10.504H106.101C106.101 7.472 107.548 6.968 111.159 6.968H116.094C119.088 6.968 120.527 8.28 120.527 10.904V18.176H116.505V16.872C115.263 18.088 114.959 18.288 112.787 18.288H109.9C107.318 18.288 105.673 17.784 105.673 15.16V14.24H105.624ZM113.158 15.752C116.151 15.752 116.357 15.344 116.357 14.536C116.357 13.728 116.044 13.424 113.774 13.424H111.916C110.164 13.424 109.752 13.832 109.752 14.736C109.752 15.44 110.271 15.744 112.022 15.744H113.158V15.752ZM123.521 7.072H127.748V8.888C128.472 7.376 130.018 6.864 132.289 6.864C134.871 6.864 138.581 6.968 138.581 11.712V18.112H134.353V11.816C134.353 10.704 133.424 10.216 131.565 10.216H130.537C128.678 10.216 127.65 11.016 127.65 12.616V18.168H123.422L123.521 7.072ZM29.0995 26.064H30.2346L34.1578 32.528H33.1215L32.299 31.216H27.0351L26.2126 32.528H25.1763L29.0995 26.064ZM29.6095 26.664L27.3394 30.304H31.7726L29.6095 26.664ZM40.5485 32.424H39.833V31.72C39.6719 31.9975 39.4292 32.222 39.1362 32.3645C38.8431 32.507 38.5129 32.5612 38.188 32.52H37.0118C35.6712 32.52 34.6349 32.112 34.6349 30.6V29.8C34.6349 28.384 35.153 27.776 37.0118 27.776H38.2538C39.1832 27.776 39.5944 27.976 39.7014 28.384V25.856H40.4251L40.5485 32.424ZM35.4902 30.608C35.4902 31.52 35.8028 31.92 37.0365 31.92H38.3772C39.6191 31.92 39.9234 31.512 39.9234 30.608V29.808C39.9234 28.696 39.3066 28.496 38.2785 28.496H37.0118C35.8768 28.496 35.4656 28.696 35.4656 29.808V30.608H35.4902ZM41.371 27.88H42.0948L44.3649 31.816L46.6349 27.88H47.4574L44.8748 32.424H43.9618L41.371 27.88ZM52.9352 31.92C52.7295 32.328 52.5239 32.424 51.2902 32.424H49.4314C48.1894 32.424 47.9838 31.92 47.9838 31.112V30.808C47.9838 29.8 48.7076 29.592 50.1469 29.592H51.3889C52.417 29.592 52.7295 29.696 53.0338 30.096V29.296C53.0338 28.496 52.5157 28.384 51.282 28.384H50.1716C49.1435 28.384 48.9296 28.688 48.9296 28.992V29.192H48.1894V28.992C48.1894 28.192 48.7076 27.776 50.1469 27.776H51.3889C52.8364 27.776 53.7659 27.976 53.7659 29.288V32.32H53.0421V31.92H52.9352ZM52.9352 31.008C52.9352 30.4 52.417 30.304 51.1833 30.304H49.9413C48.9132 30.304 48.6007 30.504 48.6007 31.008V31.2C48.6007 31.704 48.8063 31.904 49.8426 31.904H50.9941C52.3347 31.904 52.9516 31.8 52.9516 31.296V31.008H52.9352ZM54.9996 27.88H55.7234V28.68C56.0359 27.976 56.6528 27.88 57.5822 27.88H58.8241C60.2717 27.88 60.7817 28.584 60.7817 29.392V32.52H60.0414V29.6C60.0414 28.992 59.8358 28.488 58.3965 28.488H58.1991C56.3402 28.488 55.929 28.896 55.929 29.8V32.32H55.2052V27.776H54.9996V27.88ZM61.8098 29.696C61.8098 28.096 63.0517 27.88 64.0798 27.88H65.4205C66.868 27.88 67.4849 28.384 67.4849 29.392V29.496H66.7693V29.392C66.7693 28.688 66.3581 28.48 65.4287 28.48H64.0798C63.356 28.48 62.7392 28.584 62.7392 29.792V30.704C62.7392 31.712 63.356 32.016 64.2854 32.016H65.6343C66.3581 32.016 66.975 31.816 66.975 31.104V30.808H67.6905V30.912C67.6905 32.128 67.1724 32.424 65.6261 32.424H63.7755C63.5179 32.4588 63.2556 32.4365 63.008 32.3589C62.7605 32.2812 62.5342 32.1502 62.346 31.9756C62.1578 31.8011 62.0126 31.5874 61.9212 31.3506C61.8297 31.1138 61.7945 30.8599 61.818 30.608V29.696H61.8098ZM68.3896 29.696C68.3896 28.096 69.6316 27.88 70.6597 27.88H71.9017C73.2423 27.88 74.2786 28.288 74.2786 29.904V30.4H69.245V30.704C69.245 31.712 69.6563 32.016 71.1038 32.016H72.2389C73.267 32.016 73.5795 31.912 73.5795 31.216H74.3033V31.32C74.3033 32.328 73.4808 32.632 72.0333 32.632H70.6844C69.6563 32.632 68.5212 32.432 68.5212 30.816V29.696H68.4143H68.3896ZM73.5466 29.392C73.5466 28.984 73.1354 28.48 72.0004 28.48H70.89C69.648 28.48 69.4424 28.68 69.3437 29.696H73.6782L73.5466 29.392ZM81.1793 32.424H80.4884V31.72C80.3273 31.9975 80.0847 32.222 79.7916 32.3645C79.4985 32.507 79.1684 32.5612 78.8434 32.52H77.7002C76.3595 32.52 75.3232 32.112 75.3232 30.6V29.8C75.3232 28.384 75.8414 27.776 77.7002 27.776H78.9586C79.888 27.776 80.2992 27.976 80.4062 28.384V25.856H81.1299L81.1793 32.424ZM76.0223 30.608C76.0223 31.52 76.3348 31.92 77.5686 31.92H78.9586C80.2005 31.92 80.5049 31.512 80.5049 30.608V29.808C80.5049 28.696 79.888 28.496 78.8599 28.496H77.8071C76.6721 28.496 76.2608 28.696 76.2608 29.808V30.608H76.0552H76.0223ZM85.2095 26.064H86.657L90.3747 31.416L94.2979 26.064H95.7455V32.464H94.8326V26.768L90.8106 32.424H90.1937L86.1718 26.768V32.424H85.2424V26.024L85.2095 26.064ZM101.988 31.92C101.783 32.328 101.577 32.424 100.343 32.424H98.4844C97.2424 32.424 97.0368 31.92 97.0368 31.112V30.808C97.0368 29.8 97.7606 29.592 99.1999 29.592H100.442C101.47 29.592 101.783 29.696 102.087 30.096V29.296C102.087 28.496 101.569 28.384 100.335 28.384H99.1999C98.1718 28.384 97.958 28.688 97.958 28.992V29.192H97.2342V28.992C97.2342 28.192 97.7524 27.776 99.1917 27.776H100.434C101.881 27.776 102.811 27.976 102.811 29.288V32.32H101.988V31.92ZM101.988 31.008C101.988 30.4 101.47 30.304 100.236 30.304H98.9943C97.9662 30.304 97.6537 30.504 97.6537 31.008V31.2C97.6537 31.704 97.8593 31.904 98.8956 31.904H99.9237C101.264 31.904 101.881 31.8 101.881 31.296L101.988 31.008ZM104.456 28.48H103.428V27.88H104.456V26.768H105.179V27.88H108.272V28.488H105.179V30.712C105.144 30.8644 105.148 31.0231 105.193 31.1733C105.237 31.3236 105.32 31.4605 105.433 31.5714C105.546 31.6823 105.686 31.7636 105.84 31.8078C105.994 31.852 106.157 31.8575 106.314 31.824H106.627C107.655 31.824 107.869 31.624 107.869 30.608V30.2H108.486V30.608C108.486 31.52 108.379 32.208 106.734 32.208H106.323C104.875 32.208 104.571 31.504 104.571 30.792V28.472H104.456V28.48ZM109.103 29.696C109.103 28.096 110.345 27.88 111.373 27.88H112.615C113.955 27.88 114.992 28.288 114.992 29.904V30.4H109.933V30.704C109.933 31.712 110.345 32.016 111.792 32.016H112.927C113.955 32.016 114.268 31.912 114.268 31.216H114.992V31.32C114.992 32.328 114.169 32.632 112.722 32.632H111.381C110.353 32.632 109.218 32.432 109.218 30.816V29.696H109.111H109.103ZM114.161 29.392C114.161 28.984 113.75 28.48 112.615 28.48H111.447C110.205 28.48 109.999 28.68 109.9 29.696H114.235L114.161 29.392ZM116.118 27.88H116.793V28.488C116.932 28.2653 117.129 28.0826 117.365 27.9588C117.601 27.8351 117.866 27.7747 118.134 27.784H118.857C120.305 27.784 120.815 28.192 120.815 29.296V29.8H120.083V29.6C120.083 28.488 119.77 28.288 118.537 28.288H118.125C117.966 28.2708 117.805 28.2869 117.653 28.3354C117.501 28.3838 117.362 28.4634 117.244 28.5688C117.126 28.6742 117.033 28.803 116.971 28.9464C116.909 29.0897 116.879 29.2444 116.883 29.4V32.32H116.16L116.118 27.88ZM121.999 26.064H122.723V26.864H121.975V26.064H121.999ZM121.999 27.88H122.723V32.424H121.975V27.88H121.999ZM128.916 31.92C128.711 32.328 128.505 32.424 127.271 32.424H125.413C124.171 32.424 123.965 31.92 123.965 31.112V30.808C123.965 29.8 124.689 29.592 126.128 29.592H127.37C128.398 29.592 128.711 29.696 129.015 30.096V29.296C129.015 28.496 128.497 28.384 127.263 28.384H126.128C125.1 28.384 124.886 28.688 124.886 28.992V29.192H124.269V28.992C124.269 28.192 124.787 27.776 126.227 27.776H127.469C128.916 27.776 129.846 27.976 129.846 29.288V32.32H129.13L128.916 31.92ZM128.916 31.008C128.916 30.4 128.398 30.304 127.164 30.304H126.029C125.001 30.304 124.689 30.504 124.689 31.008V31.2C124.689 31.704 124.894 31.904 125.931 31.904H126.959C128.299 31.904 128.916 31.8 128.916 31.296V31.008ZM131.079 26.056H131.803V32.52H131.079V26.064V26.056ZM133.144 30.904H133.868V31.008C133.868 31.512 134.18 31.808 135.003 31.808H136.648C137.89 31.808 138.194 31.808 138.194 31.104C138.194 30.696 138.087 30.496 137.166 30.496H134.789C133.654 30.496 133.341 30.088 133.341 29.28V28.992C133.341 28.288 133.753 27.776 135.611 27.776H136.853C138.605 27.776 138.918 28.184 138.918 28.888V29.192H138.095C138.095 28.488 137.684 28.488 136.755 28.488H135.414C134.279 28.488 134.073 28.592 134.073 29.096V29.296C134.073 29.704 134.18 29.8 135.003 29.8H137.067C138.309 29.8 139.025 29.904 139.025 31.112C139.025 32.32 137.783 32.424 136.862 32.424H135.521C134.386 32.424 133.251 32.424 133.251 31.112V30.912H133.144V30.904ZM0 18.184V0H2.27006L9.80402 13.736C9.80402 13.736 17.4367 0.104 17.338 0H19.608V18.184H0ZM0 20.584H19.5011V22.808C19.5011 22.808 4.74574 25.96 4.74574 30.304C4.74574 35.456 19.5011 37.776 19.5011 37.776V40H0V20.608V20.584Z" fill="white"/>
</g>
<defs>
<clipPath id="clip0_624_910">
<rect width="139" height="40" fill="white"/>
</clipPath>
</defs>
</svg>
