<svg width="16" height="16" viewBox="0 0 16 16" fill="none" xmlns="http://www.w3.org/2000/svg">
<path d="M7.99967 5.83398C7.42504 5.83398 6.87394 6.06226 6.46761 6.46859C6.06128 6.87492 5.83301 7.42602 5.83301 8.00065C5.83301 8.57529 6.06128 9.12639 6.46761 9.53272C6.87394 9.93904 7.42504 10.1673 7.99967 10.1673C8.57431 10.1673 9.12541 9.93904 9.53174 9.53272C9.93807 9.12639 10.1663 8.57529 10.1663 8.00065C10.1663 7.42602 9.93807 6.87492 9.53174 6.46859C9.12541 6.06226 8.57431 5.83398 7.99967 5.83398Z" fill="white"/>
<path fill-rule="evenodd" clip-rule="evenodd" d="M4.51341 2.05484C6.83077 1.79813 9.16939 1.79813 11.4867 2.05484C12.7527 2.19617 13.7734 3.19284 13.9221 4.46351C14.1967 6.81329 14.1967 9.18706 13.9221 11.5368C13.7734 12.8075 12.7527 13.8042 11.4874 13.9462C9.16984 14.2029 6.83099 14.2029 4.51341 13.9462C3.24741 13.8042 2.22675 12.8075 2.07808 11.5375C1.8034 9.18751 1.8034 6.81351 2.07808 4.46351C2.22675 3.19284 3.24741 2.19617 4.51341 2.05484ZM11.3334 4.00017C11.1566 4.00017 10.987 4.07041 10.862 4.19544C10.737 4.32046 10.6667 4.49003 10.6667 4.66684C10.6667 4.84365 10.737 5.01322 10.862 5.13824C10.987 5.26327 11.1566 5.33351 11.3334 5.33351C11.5102 5.33351 11.6798 5.26327 11.8048 5.13824C11.9298 5.01322 12.0001 4.84365 12.0001 4.66684C12.0001 4.49003 11.9298 4.32046 11.8048 4.19544C11.6798 4.07041 11.5102 4.00017 11.3334 4.00017ZM4.83341 8.00017C4.83341 7.16032 5.16704 6.35487 5.76091 5.761C6.35477 5.16714 7.16023 4.83351 8.00008 4.83351C8.83993 4.83351 9.64538 5.16714 10.2392 5.761C10.8331 6.35487 11.1667 7.16032 11.1667 8.00017C11.1667 8.84003 10.8331 9.64548 10.2392 10.2393C9.64538 10.8332 8.83993 11.1668 8.00008 11.1668C7.16023 11.1668 6.35477 10.8332 5.76091 10.2393C5.16704 9.64548 4.83341 8.84003 4.83341 8.00017Z" fill="white"/>
</svg>
