<svg width="171" height="31" viewBox="0 0 171 31" fill="none" xmlns="http://www.w3.org/2000/svg">
<path d="M5.95338 16.0772L11.8923 2.77752V0.47319H17.8311V29.6187H11.8923L11.8632 17.3289L6.389 29.6187H0V0.47319H5.93887V16.0914L5.95338 16.0772Z" fill="#E1251B"/>
<path d="M26.2953 12.151H32.2342V0.50132H38.173V29.6041H32.2342V17.9545H26.2953V29.6041H20.3564V0.50132H26.2953V12.151Z" fill="#E1251B"/>
<path d="M40.6855 0.472878H58.5167V29.6184H52.5778V6.2906H46.6389V29.6184H40.7001V0.472878H40.6855Z" fill="#E1251B"/>
<path d="M72.907 20.8847H66.9682V29.6184H61.0293V0.47287H72.9215C73.7202 0.47287 74.4752 0.629336 75.2013 0.928045C75.9273 1.22675 76.5662 1.63926 77.1034 2.17979C77.6407 2.70608 78.0618 3.33194 78.3812 4.02893C78.7007 4.74014 78.8604 5.49403 78.8604 6.29059V15.0669C78.8604 15.8777 78.7007 16.6316 78.3812 17.3286C78.0618 18.0398 77.6407 18.6515 77.1034 19.1778C76.5662 19.7041 75.9273 20.1166 75.2013 20.4295C74.4752 20.7282 73.7202 20.8847 72.9215 20.8847H72.907ZM72.907 6.29059H66.9682V15.0669H72.907V6.29059Z" fill="#E1251B"/>
<path d="M113.347 6.29059V0.47287H131.207V6.29059H125.224V29.6184H119.286V6.29059H113.347Z" fill="#E1251B"/>
<path d="M134.88 0.472873H149.734V6.2906H140.819V12.151H148.268V17.9687H140.819V23.7864H149.734V29.6041H134.88V0.458656V0.472873Z" fill="#E1251B"/>
<path d="M164.706 2.13712V0.47287H170.645V3.45997L164.43 15.0669L170.645 26.6313V29.6184H164.706V27.9541L161.715 21.8235L158.767 27.9541V29.6184H152.828V26.6313L158.462 15.0669L152.828 3.45997V0.47287H158.767V2.13712L161.744 8.26776L164.72 2.13712H164.706Z" fill="#E1251B"/>
<path d="M80.792 16.9161C80.792 16.9161 80.8936 16.7596 80.9662 16.7312C81.4309 16.5036 81.9101 16.2903 82.3893 16.0911C82.4909 16.0484 82.5345 15.9915 82.5345 15.8777C82.5345 15.3088 82.5345 14.7398 82.5345 14.1708C82.5345 14.0428 82.4909 14.0001 82.3893 13.9575C81.9101 13.7441 81.4454 13.5308 80.9662 13.3174C80.8646 13.2747 80.821 13.2036 80.8501 13.104C80.9953 12.4213 81.126 11.7385 81.2712 11.0557C81.2857 10.9704 81.3293 10.9135 81.4454 10.9135C81.9682 10.8993 82.5054 10.8566 83.0281 10.8424C83.1443 10.8424 83.2024 10.7997 83.246 10.7001C83.4638 10.1596 83.6961 9.6333 83.9284 9.107C83.972 9.00743 83.9575 8.96477 83.8849 8.89365C83.5218 8.50959 83.1588 8.11131 82.7813 7.72726C82.7087 7.65614 82.7087 7.59924 82.7668 7.51389C83.1588 6.94492 83.5654 6.36173 83.9575 5.77853C84.0155 5.67896 84.0881 5.66474 84.1898 5.70741C84.6835 5.89232 85.1772 6.06302 85.6564 6.24794C85.7725 6.29061 85.8306 6.29061 85.9177 6.19104C86.3243 5.77854 86.7454 5.38026 87.1665 4.98198C87.2536 4.89663 87.2536 4.83973 87.2246 4.74016C87.0358 4.25653 86.847 3.75868 86.6728 3.26084C86.6583 3.20394 86.6728 3.10437 86.7309 3.07592C87.3262 2.67765 87.9361 2.27936 88.5459 1.89531C88.5895 1.86686 88.7056 1.89532 88.7492 1.92376C89.1413 2.26515 89.5188 2.62075 89.9109 2.96213C89.998 3.04747 90.0706 3.0617 90.1867 3.01903C90.724 2.79144 91.2612 2.57808 91.7985 2.36471C91.9147 2.32204 91.9582 2.25092 91.9582 2.13713C91.9728 1.62506 92.0018 1.11298 92.0308 0.600909C92.0308 0.487115 92.0744 0.444438 92.1906 0.430214C92.8004 0.31642 93.4103 0.174174 94.0201 0.0603803C94.4122 -0.010741 94.4122 0.00349285 94.5864 0.359099C94.7752 0.743154 94.9494 1.14142 95.1237 1.5397C95.1673 1.63927 95.2253 1.68195 95.3415 1.68195C95.9223 1.68195 96.5177 1.68195 97.0985 1.68195C97.2146 1.68195 97.2727 1.63927 97.3163 1.5397C97.5341 1.05608 97.7664 0.586687 97.9987 0.103062C98.0423 0.0177167 98.0859 -0.0107314 98.1875 0.00349284C98.8845 0.145735 99.5815 0.287971 100.264 0.430214C100.395 0.458662 100.424 0.515558 100.424 0.629352C100.438 1.14143 100.467 1.63927 100.482 2.15135C100.482 2.26514 100.525 2.32204 100.627 2.37894C101.164 2.5923 101.701 2.80567 102.224 3.03325C102.355 3.09015 102.427 3.0617 102.515 2.97636C102.892 2.63497 103.27 2.29359 103.647 1.95221C103.734 1.88109 103.807 1.85264 103.909 1.92376C104.475 2.30782 105.056 2.67764 105.637 3.0617C105.753 3.13282 105.782 3.20394 105.724 3.33196C105.535 3.81559 105.361 4.29921 105.172 4.76861C105.128 4.86818 105.143 4.92507 105.23 4.9962C105.651 5.39447 106.058 5.80698 106.464 6.21948C106.551 6.30483 106.624 6.31905 106.726 6.27638C107.219 6.09147 107.713 5.92077 108.192 5.75008C108.294 5.70741 108.366 5.72164 108.424 5.82121C108.816 6.4044 109.209 6.9876 109.615 7.57079C109.673 7.65614 109.659 7.69881 109.601 7.76993C109.238 8.15399 108.875 8.53804 108.512 8.92209C108.424 9.00744 108.424 9.07856 108.468 9.17813C108.686 9.6902 108.904 10.188 109.107 10.7001C109.165 10.8424 109.238 10.8993 109.397 10.8993C109.906 10.9135 110.414 10.9562 110.936 10.9704C111.038 10.9704 111.096 11.0273 111.111 11.1126C111.241 11.7954 111.387 12.4924 111.517 13.1751C111.532 13.2747 111.503 13.3316 111.401 13.3743C110.922 13.5876 110.443 13.8152 109.964 14.0286C109.862 14.0713 109.818 14.1282 109.818 14.2562C109.818 14.8252 109.818 15.3941 109.818 15.9631C109.818 16.0911 109.862 16.1338 109.964 16.1765C110.443 16.3898 110.907 16.6032 111.372 16.8166C111.474 16.8592 111.532 16.9303 111.503 17.0441C111.358 17.7269 111.227 18.4097 111.082 19.0924C111.067 19.192 111.009 19.2204 110.907 19.2347C110.385 19.2489 109.862 19.2916 109.339 19.3058C109.209 19.3058 109.15 19.3485 109.107 19.4623C108.889 19.9886 108.671 20.5149 108.439 21.0269C108.395 21.1407 108.395 21.1976 108.483 21.283C108.846 21.667 109.194 22.0511 109.557 22.4209C109.63 22.492 109.644 22.5631 109.586 22.6485C109.194 23.2175 108.802 23.7864 108.41 24.3696C108.337 24.4692 108.279 24.4834 108.163 24.4408C107.684 24.2558 107.19 24.0994 106.711 23.9144C106.58 23.8718 106.508 23.886 106.421 23.9856C106.029 24.3839 105.622 24.7821 105.215 25.1662C105.114 25.2515 105.099 25.3227 105.157 25.4507C105.346 25.9343 105.52 26.4179 105.695 26.9015C105.738 27.0011 105.709 27.0722 105.622 27.1291C105.041 27.5132 104.446 27.8972 103.865 28.2813C103.763 28.3524 103.691 28.3382 103.618 28.2528C103.241 27.8972 102.849 27.5559 102.471 27.2002C102.384 27.1149 102.326 27.1007 102.21 27.1576C101.672 27.3852 101.135 27.5985 100.598 27.8119C100.467 27.8546 100.438 27.9257 100.438 28.0537C100.424 28.5658 100.395 29.0636 100.366 29.5757C100.366 29.6895 100.322 29.7322 100.22 29.7606C99.6105 29.8744 99.0152 30.0024 98.4053 30.1304C98.2746 30.1589 98.1004 30.2158 98.0133 30.1589C97.9116 30.0878 97.8535 29.9313 97.7955 29.8033C97.6067 29.4192 97.4324 29.0352 97.2582 28.6369C97.2146 28.5373 97.1711 28.4947 97.0404 28.4947C96.4596 28.4947 95.8642 28.4947 95.2834 28.4947C95.1673 28.4947 95.1092 28.5231 95.0656 28.6227C94.8478 29.1063 94.6155 29.5757 94.3977 30.0451C94.3541 30.1447 94.296 30.1731 94.1944 30.1589C93.4974 30.0167 92.8004 29.8744 92.118 29.7322C92.0163 29.7179 91.9728 29.661 91.9582 29.5615C91.9437 29.0494 91.9147 28.5373 91.9001 28.0253C91.9001 27.8972 91.8566 27.8403 91.7404 27.7977C91.2032 27.5843 90.6514 27.3709 90.1141 27.1433C90.0125 27.1007 89.9544 27.1149 89.8818 27.186C89.4898 27.5416 89.0977 27.883 88.7202 28.2386C88.6331 28.3097 88.5604 28.324 88.4733 28.2671C87.8925 27.883 87.2972 27.4847 86.7163 27.1007C86.6292 27.0438 86.6147 26.9869 86.6437 26.8873C86.8325 26.4037 87.0068 25.9058 87.1955 25.4222C87.2391 25.3226 87.2246 25.2515 87.1374 25.1804C86.7163 24.7821 86.3098 24.3696 85.9032 23.9571C85.8306 23.8718 85.758 23.8718 85.6564 23.9002C85.1627 24.0851 84.669 24.2558 84.1607 24.4408C84.0446 24.4834 83.9865 24.455 83.9284 24.3696C83.5364 23.7864 83.1443 23.2175 82.7523 22.6343C82.6942 22.5489 82.7087 22.492 82.7668 22.4209C83.1298 22.0368 83.4928 21.6528 83.8558 21.2687C83.9284 21.1834 83.9429 21.1265 83.8994 21.0269C83.6816 20.5149 83.4492 20.0028 83.246 19.4907C83.1879 19.3485 83.1298 19.3058 82.9701 19.2916C82.4473 19.2916 81.9391 19.2347 81.4164 19.2204C81.3147 19.2204 81.2712 19.1635 81.2421 19.0782C81.0969 18.3954 80.9517 17.7269 80.792 17.0157V16.9161ZM96.1546 24.3554C101.309 24.3554 105.666 20.3584 105.68 15.0812C105.709 9.90357 101.455 5.7643 96.2127 5.75008C91.0434 5.73586 86.7163 9.804 86.6873 15.0243C86.6583 20.1877 90.8837 24.3269 96.1401 24.3554H96.1546Z" fill="#B1B1B1"/>
</svg>
