<svg width="16" height="16" viewBox="0 0 16 16" fill="none" xmlns="http://www.w3.org/2000/svg">
<path d="M15.3571 11.9993H13.6052C12.9427 11.9993 12.7431 11.4912 11.5554 10.3659C10.5175 9.4188 10.0791 9.30104 9.81658 9.30104C9.45346 9.30104 9.35443 9.39554 9.35443 9.86875V11.3603C9.35443 11.7638 9.21624 12 8.10307 12C7.02314 11.9313 5.9759 11.6207 5.0476 11.0937C4.11931 10.5667 3.33652 9.83841 2.76372 8.96885C1.40413 7.36578 0.457863 5.48474 0 3.47499C0 3.2264 0.099801 3.00106 0.600341 3.00106H2.3507C2.80057 3.00106 2.96255 3.19078 3.13913 3.6291C3.98897 5.99731 5.43915 8.05733 6.02798 8.05733C6.25368 8.05733 6.35195 7.96283 6.35195 7.43002V4.99057C6.27748 3.87769 5.65334 3.78392 5.65334 3.38123C5.66124 3.27498 5.71256 3.17584 5.79642 3.10486C5.88028 3.03387 5.99006 2.99664 6.10245 3.00106H8.85388C9.23006 3.00106 9.35443 3.17842 9.35443 3.60438V6.89721C9.35443 7.25266 9.51564 7.37042 9.62926 7.37042C9.85497 7.37042 10.0285 7.25266 10.4423 6.86159C11.3289 5.83715 12.0535 4.69611 12.5934 3.47427C12.6484 3.32741 12.7527 3.20168 12.8904 3.11634C13.0281 3.031 13.1915 2.99076 13.3557 3.00179H15.1068C15.6319 3.00179 15.7432 3.25038 15.6319 3.60511C14.9948 4.95589 14.2068 6.23818 13.2812 7.43002C13.0924 7.70261 13.0171 7.84435 13.2812 8.16418C13.4547 8.41278 14.0689 8.89835 14.4811 9.35992C15.0815 9.9269 15.5797 10.5826 15.9566 11.3007C16.1071 11.763 15.8568 11.9993 15.3571 11.9993Z" fill="white"/>
</svg>
