<svg width="14" height="14" viewBox="0 0 14 14" fill="none" xmlns="http://www.w3.org/2000/svg">
<path fill-rule="evenodd" clip-rule="evenodd" d="M3.86662 11.7793C4.84895 12.3597 5.78674 12.7073 7.02696 12.7079C10.2201 12.7079 12.8213 10.1214 12.8231 6.94167C12.8242 3.7555 10.2354 1.1725 7.03165 1.17133C3.83614 1.17133 1.23671 3.75783 1.23554 6.937C1.23495 8.23492 1.6171 9.20675 2.2589 10.2235L1.67336 12.3515L3.86662 11.7793ZM10.2066 8.3895C10.3813 8.47642 10.4974 8.51958 10.5407 8.59192C10.5847 8.66425 10.5847 9.01133 10.4393 9.41675C10.294 9.82158 9.59826 10.1914 9.26358 10.241C8.96349 10.2853 8.58369 10.304 8.16637 10.1722C7.91376 10.0922 7.58905 9.9855 7.17349 9.807C5.42627 9.05625 4.28569 7.30508 4.19836 7.18958L4.19629 7.18683C4.10218 7.06157 3.4874 6.24336 3.4874 5.39642C3.4874 4.543 3.93754 4.12417 4.09696 3.95033C4.25638 3.7765 4.44511 3.73333 4.56116 3.73333L4.89525 3.73917C5.00193 3.74442 5.14552 3.69892 5.28736 4.03667C5.43214 4.38375 5.78029 5.23717 5.82425 5.3235C5.86821 5.41042 5.89693 5.51192 5.8389 5.62742C5.78029 5.7435 5.75157 5.81583 5.66307 5.91617C5.57573 6.01767 5.4802 6.1425 5.40166 6.22008C5.31491 6.30642 5.22406 6.40033 5.32546 6.57358C5.42686 6.74742 5.77677 7.315 6.29431 7.77467C6.95956 8.36558 7.52106 8.54817 7.69513 8.63508C7.86921 8.722 7.9712 8.70742 8.07259 8.59192C8.17399 8.47642 8.50808 8.08558 8.62413 7.91233C8.74077 7.7385 8.85682 7.76767 9.01624 7.82542C9.17625 7.88317 10.0326 8.30258 10.2066 8.3895Z" fill="white"/>
<path fill-rule="evenodd" clip-rule="evenodd" d="M0.98878 10.4049L0 14L3.69547 13.0352C4.71356 13.5882 5.86293 13.8792 7.0293 13.8798C10.8713 13.8798 13.9982 10.7677 14 6.94283C14.0006 5.089 13.2761 3.346 11.9603 2.03467C10.6439 0.723333 8.89374 0.000583333 7.0293 0C3.18731 0 0.0603701 3.11208 0.0586117 6.93642C0.0580256 8.15967 0.378632 9.35258 0.98878 10.4049ZM7.02696 12.7079C5.78674 12.7073 4.84895 12.3597 3.86662 11.7793L1.67336 12.3515L2.2589 10.2235C1.6171 9.20675 1.23495 8.23492 1.23554 6.937C1.23671 3.75783 3.83614 1.17133 7.03165 1.17133C10.2354 1.1725 12.8242 3.7555 12.8231 6.94167C12.8213 10.1214 10.2201 12.7079 7.02696 12.7079Z" fill="white"/>
</svg>
