<svg width="1435" height="219" viewBox="0 0 1435 219" fill="none" xmlns="http://www.w3.org/2000/svg">
<g opacity="0.1">
<path d="M50.0638 131.342L100.005 19.5012V0.123413H149.947V245.217H100.005L99.7613 141.868L53.727 245.217H0V0.123413H49.9417V131.462L50.0638 131.342Z" fill="white"/>
<path d="M221.127 98.3241H271.069V0.358704H321.011V245.093H271.069V147.127H221.127V245.093H171.186V0.358704H221.127V98.3241Z" fill="white"/>
<path d="M342.138 0.120117H492.085V245.213H442.143V49.0431H392.201V245.213H342.26V0.120117H342.138Z" fill="white"/>
<path d="M613.098 171.769H563.156V245.213H513.215V0.120117H613.22C619.936 0.120117 626.286 1.43589 632.391 3.94782C638.496 6.45976 643.869 9.92868 648.387 14.4741C652.905 18.8999 656.446 24.1629 659.132 30.0241C661.819 36.0049 663.162 42.3446 663.162 49.0431V122.846C663.162 129.664 661.819 136.004 659.132 141.865C656.446 147.846 652.905 152.989 648.387 157.415C643.869 161.841 638.496 165.31 632.391 167.941C626.286 170.453 619.936 171.769 613.22 171.769H613.098ZM613.098 49.0431H563.156V122.846H613.098V49.0431Z" fill="white"/>
<path d="M953.166 49.0431V0.120117H1103.36V49.0431H1053.05V245.213H1003.11V49.0431H953.166Z" fill="white"/>
<path d="M1134.24 0.11955H1259.16V49.0425H1184.18V98.3242H1246.83V147.247H1184.18V196.17H1259.16V245.093H1134.24V0V0.11955Z" fill="white"/>
<path d="M1385.06 14.1152V0.120117H1435V25.2395L1382.74 122.846L1435 220.094V245.213H1385.06V231.218L1359.9 179.664L1335.12 231.218V245.213H1285.17V220.094L1332.55 122.846L1285.17 25.2395V0.120117H1335.12V14.1152L1360.15 65.6697L1385.18 14.1152H1385.06Z" fill="white"/>
<path d="M683.334 139.751C683.334 139.751 684.193 138.476 684.806 138.244C688.733 136.389 692.782 134.65 696.831 133.027C697.69 132.68 698.058 132.216 698.058 131.288C698.058 126.651 698.058 122.014 698.058 117.377C698.058 116.333 697.69 115.985 696.831 115.638C692.782 113.899 688.856 112.16 684.806 110.421C683.948 110.073 683.579 109.493 683.825 108.682C685.052 103.117 686.156 97.5524 687.383 91.9877C687.506 91.2922 687.874 90.8284 688.856 90.8284C693.273 90.7125 697.813 90.3647 702.23 90.2488C703.212 90.2488 703.703 89.901 704.071 89.0895C705.911 84.6841 707.874 80.3946 709.838 76.1052C710.206 75.2937 710.083 74.9459 709.47 74.3663C706.402 71.2361 703.334 67.9901 700.144 64.8599C699.531 64.2803 699.531 63.8165 700.021 63.121C703.334 58.4837 706.77 53.7305 710.083 48.9774C710.574 48.1659 711.187 48.0499 712.046 48.3977C716.218 49.9048 720.39 51.296 724.439 52.8031C725.421 53.1509 725.912 53.1509 726.648 52.3394C730.084 48.9774 733.642 45.7313 737.2 42.4853C737.936 41.7897 737.936 41.3259 737.691 40.5144C736.096 36.5727 734.501 32.5151 733.028 28.4576C732.906 27.9938 733.028 27.1823 733.519 26.9505C738.55 23.7044 743.703 20.4583 748.857 17.3282C749.225 17.0963 750.207 17.3282 750.575 17.5601C753.888 20.3424 757.078 23.2407 760.391 26.023C761.127 26.7186 761.741 26.8345 762.722 26.4867C767.262 24.6319 771.802 22.8929 776.342 21.1539C777.324 20.8061 777.692 20.2265 777.692 19.2991C777.815 15.1256 778.06 10.952 778.305 6.77853C778.305 5.85108 778.674 5.50325 779.655 5.38732C784.809 4.45988 789.962 3.30054 795.116 2.37309C798.428 1.79344 798.428 1.90945 799.901 4.80772C801.496 7.93786 802.968 11.1839 804.441 14.4299C804.809 15.2414 805.3 15.5893 806.281 15.5893C811.19 15.5893 816.22 15.5893 821.128 15.5893C822.11 15.5893 822.601 15.2414 822.969 14.4299C824.809 10.4883 826.773 6.66261 828.736 2.72096C829.104 2.02538 829.472 1.79352 830.331 1.90945C836.221 3.06876 842.11 4.22801 847.877 5.38732C848.982 5.61919 849.227 6.0829 849.227 7.01035C849.35 11.1839 849.595 15.2414 849.718 19.415C849.718 20.3424 850.086 20.8062 850.945 21.2699C855.485 23.0089 860.025 24.7478 864.442 26.6027C865.546 27.0664 866.16 26.8346 866.896 26.139C870.086 23.3566 873.277 20.5743 876.467 17.7919C877.203 17.2123 877.817 16.9805 878.676 17.5601C883.461 20.6902 888.369 23.7044 893.277 26.8345C894.259 27.4142 894.504 27.9939 894.013 29.0372C892.418 32.9789 890.946 36.9206 889.351 40.7463C888.983 41.5578 889.105 42.0215 889.841 42.6011C893.4 45.8472 896.835 49.2092 900.271 52.5712C901.007 53.2668 901.621 53.3827 902.48 53.0349C906.652 51.5278 910.824 50.1366 914.873 48.7455C915.732 48.3977 916.345 48.5136 916.836 49.3252C920.149 54.0783 923.462 58.8315 926.898 63.5847C927.388 64.2803 927.266 64.6281 926.775 65.2077C923.707 68.3379 920.64 71.468 917.572 74.5981C916.836 75.2937 916.836 75.8733 917.204 76.6849C919.045 80.8584 920.885 84.9159 922.603 89.0895C923.094 90.2488 923.707 90.7125 925.057 90.7125C929.352 90.8284 933.646 91.1762 938.063 91.2922C938.922 91.2922 939.413 91.7559 939.536 92.4515C940.64 98.0162 941.867 103.697 942.971 109.261C943.094 110.073 942.849 110.537 941.99 110.884C937.941 112.623 933.891 114.478 929.842 116.217C928.983 116.565 928.615 117.029 928.615 118.072C928.615 122.709 928.615 127.347 928.615 131.984C928.615 133.027 928.983 133.375 929.842 133.723C933.891 135.462 937.818 137.201 941.744 138.94C942.603 139.288 943.094 139.867 942.849 140.795C941.622 146.359 940.517 151.924 939.29 157.489C939.168 158.3 938.677 158.532 937.818 158.648C933.401 158.764 928.983 159.112 924.566 159.228C923.462 159.228 922.971 159.576 922.603 160.503C920.762 164.792 918.922 169.082 916.959 173.255C916.59 174.183 916.59 174.647 917.327 175.342C920.394 178.472 923.339 181.602 926.407 184.617C927.02 185.196 927.143 185.776 926.652 186.471C923.339 191.109 920.026 195.746 916.713 200.499C916.1 201.311 915.609 201.427 914.627 201.079C910.578 199.572 906.406 198.296 902.357 196.789C901.253 196.441 900.639 196.557 899.903 197.369C896.59 200.615 893.154 203.861 889.719 206.991C888.86 207.687 888.737 208.266 889.228 209.31C890.823 213.251 892.295 217.193 893.768 221.135C894.136 221.946 893.891 222.526 893.154 222.99C888.246 226.12 883.216 229.25 878.308 232.38C877.449 232.96 876.835 232.844 876.222 232.148C873.031 229.25 869.718 226.468 866.528 223.569C865.792 222.874 865.301 222.758 864.319 223.222C859.779 225.076 855.24 226.815 850.7 228.554C849.595 228.902 849.35 229.482 849.35 230.525C849.227 234.699 848.982 238.756 848.736 242.93C848.736 243.857 848.368 244.205 847.509 244.437C842.356 245.364 837.325 246.408 832.172 247.451C831.067 247.683 829.595 248.147 828.859 247.683C828 247.103 827.509 245.828 827.018 244.785C825.423 241.655 823.951 238.524 822.478 235.278C822.11 234.467 821.742 234.119 820.638 234.119C815.729 234.119 810.699 234.119 805.791 234.119C804.809 234.119 804.318 234.351 803.95 235.162C802.11 239.104 800.146 242.93 798.306 246.755C797.938 247.567 797.447 247.799 796.588 247.683C790.698 246.524 784.809 245.364 779.042 244.205C778.183 244.089 777.815 243.625 777.692 242.814C777.569 238.64 777.324 234.467 777.201 230.293C777.201 229.25 776.833 228.786 775.851 228.438C771.311 226.699 766.649 224.96 762.109 223.106C761.25 222.758 760.759 222.874 760.145 223.453C756.833 226.352 753.52 229.134 750.329 232.032C749.593 232.612 748.98 232.728 748.243 232.264C743.335 229.134 738.304 225.888 733.396 222.758C732.66 222.294 732.538 221.83 732.783 221.019C734.378 217.077 735.85 213.02 737.446 209.078C737.814 208.266 737.691 207.687 736.955 207.107C733.396 203.861 729.961 200.499 726.525 197.137C725.912 196.441 725.298 196.441 724.439 196.673C720.267 198.18 716.095 199.572 711.801 201.079C710.819 201.427 710.328 201.195 709.838 200.499C706.525 195.746 703.212 191.109 699.899 186.355C699.408 185.66 699.531 185.196 700.021 184.617C703.089 181.486 706.157 178.356 709.224 175.226C709.838 174.531 709.96 174.067 709.592 173.255C707.752 169.082 705.788 164.908 704.071 160.735C703.58 159.575 703.089 159.228 701.739 159.112C697.322 159.112 693.027 158.648 688.61 158.532C687.751 158.532 687.383 158.068 687.138 157.373C685.911 151.808 684.684 146.359 683.334 140.563V139.751ZM813.153 200.383C856.712 200.383 893.523 167.807 893.645 124.796C893.891 82.5974 857.939 48.8614 813.644 48.7455C769.962 48.6295 733.396 81.7858 733.151 124.332C732.906 166.415 768.612 200.151 813.03 200.383H813.153Z" fill="#B1B1B1"/>
</g>
</svg>
